<svg width="71" height="50" viewBox="0 0 71 50" fill="none" xmlns="http://www.w3.org/2000/svg">
<path d="M70.0571 24.123L59.361 12.4241C58.9392 11.962 58.3417 11.6989 57.716 11.6989H45.07V2.22853C45.07 0.997627 44.0724 0 42.8415 0H2.22852C0.997617 0 0 0.997945 0 2.22853C0 3.45912 0.997617 4.45707 2.22852 4.45707H40.6126V39.9446H21.3923C20.4296 36.7108 17.4316 34.3456 13.8899 34.3456C10.3481 34.3456 7.34953 36.7108 6.38781 39.9446H2.22852C0.997617 39.9446 0 40.9422 0 42.1728C0 43.404 0.997617 44.4013 2.22852 44.4013H6.38781C7.34953 47.6345 10.3481 50 13.8899 50C17.4316 50 20.4296 47.6345 21.3923 44.4013H42.8412H48.1239C49.0866 47.6345 52.0852 50 55.6263 50C59.1687 50 62.1667 47.6345 63.129 44.4013H68.4121C69.643 44.4013 70.6406 43.4037 70.6406 42.1728V25.6266C70.6413 25.0707 70.4324 24.5339 70.0571 24.123ZM13.8899 45.5436C12.0316 45.5436 10.5198 44.0317 10.5198 42.1731C10.5198 40.3148 12.0316 38.8027 13.8899 38.8027C15.7482 38.8027 17.26 40.3151 17.26 42.1731C17.2603 44.0317 15.7482 45.5436 13.8899 45.5436ZM55.6266 45.5436C53.7684 45.5436 52.2565 44.0317 52.2565 42.1731C52.2565 40.3148 53.7687 38.8027 55.6266 38.8027C57.4855 38.8027 58.9974 40.3151 58.9974 42.1731C58.9977 44.0317 57.4855 45.5436 55.6266 45.5436ZM63.1296 39.9449C62.1673 36.7111 59.1693 34.3459 55.6269 34.3459C52.0855 34.3459 49.0872 36.7111 48.1246 39.9449H45.0703V16.1562H56.7345L63.3556 23.3984H50.7322C49.502 23.3984 48.5043 24.3963 48.5043 25.6269C48.5043 26.8581 49.502 27.8554 50.7322 27.8554H66.1842V39.9446H63.1296V39.9449Z" fill="#111111"/>
</svg>
