<svg width="60" height="50" viewBox="0 0 60 50" fill="none" xmlns="http://www.w3.org/2000/svg">
<path d="M17.2382 32.6527H27.4367C28.3168 32.6527 29.03 31.9395 29.03 31.0599C29.03 30.1798 28.3165 29.4661 27.4367 29.4661H21.0845L27.0452 23.5056C28.3249 22.2259 29.03 20.5244 29.03 18.7143C29.03 16.9044 28.3249 15.2029 27.0452 13.9231C25.7657 12.6432 24.0639 11.9385 22.2541 11.9385C20.4439 11.9385 18.7425 12.6434 17.4629 13.9231C16.8406 14.5451 16.8406 15.5542 17.4629 16.1766C18.0853 16.7985 19.094 16.7985 19.7164 16.1761C20.394 15.4983 21.2956 15.1252 22.2541 15.1252C23.2127 15.1252 24.1142 15.4983 24.792 16.1766C25.47 16.8539 25.8431 17.7554 25.8431 18.7143C25.8431 19.6729 25.47 20.5744 24.792 21.2522L16.1111 29.9333C15.6553 30.3886 15.5192 31.0742 15.7655 31.6697C16.0125 32.2648 16.5936 32.6527 17.2382 32.6527Z" fill="#111111"/>
<path d="M42.7617 29.4667H41.4077V26.2662C41.4077 25.3866 40.6944 24.6729 39.8143 24.6729C38.9343 24.6729 38.2212 25.3866 38.2212 26.2662V29.4667H34.4056L41.2679 14.1849C41.6283 13.3823 41.2697 12.4391 40.4669 12.0787C39.6641 11.7183 38.7211 12.0767 38.3608 12.8793L30.4898 30.4075C30.2685 30.9003 30.3118 31.472 30.6054 31.926C30.8992 32.3796 31.4026 32.6532 31.9431 32.6532H38.221V35.8542C38.221 36.7338 38.9341 37.4477 39.8141 37.4477C40.6944 37.4477 41.4075 36.7338 41.4075 35.8542V32.6532H42.7615C43.6416 32.6532 44.3551 31.9399 44.3551 31.0603C44.3553 30.1803 43.6416 29.4667 42.7617 29.4667Z" fill="#333333"/>
<path d="M59.7869 23.8971C59.5025 23.4042 58.9762 23.1002 58.4072 23.1002H54.6409C54.2614 17.1045 51.7469 11.5195 47.4604 7.23347C42.7966 2.56959 36.5957 0.00122176 30.0002 0.00122176C29.1201 0.00122176 28.4068 0.714491 28.4068 1.59432C28.4068 2.47461 29.1203 3.18764 30.0002 3.18764C41.3228 3.18764 50.6292 11.983 51.4472 23.1004H47.7922C47.2228 23.1004 46.697 23.4045 46.4125 23.8973C46.1275 24.3904 46.1275 24.9978 46.4125 25.4909L51.7196 34.6837C52.0046 35.1767 52.5304 35.4801 53.0994 35.4801C53.6688 35.4801 54.1948 35.1767 54.4793 34.6837L59.7867 25.4909C60.0712 24.9975 60.0712 24.3902 59.7869 23.8971ZM53.0994 30.6997L50.5519 26.2869H55.6475L53.0994 30.6997Z" fill="#111111"/>
<path d="M25.0286 3.18712C25.4476 3.18712 25.8586 3.01627 26.1552 2.71973C26.4515 2.42343 26.6221 2.01236 26.6221 1.59357C26.6221 1.17343 26.4517 0.763275 26.1552 0.466968C25.8589 0.169525 25.4476 0 25.0286 0C24.6087 0 24.1985 0.169525 23.9015 0.466968C23.6052 0.763275 23.4353 1.17433 23.4353 1.59357C23.4353 2.01236 23.6052 2.42343 23.9015 2.71973C24.1985 3.01627 24.6087 3.18712 25.0286 3.18712Z" fill="#111111"/>
<path d="M20.2488 3.18712C20.6676 3.18712 21.0789 3.01627 21.3752 2.71973C21.6726 2.42343 21.8421 2.01236 21.8421 1.59357C21.8421 1.17343 21.6726 0.763275 21.3752 0.466968C21.0789 0.169525 20.6676 0 20.2488 0C19.8298 0 19.4187 0.169525 19.1222 0.466968C18.8248 0.763275 18.6553 1.17343 18.6553 1.59357C18.6553 2.01236 18.8248 2.42343 19.1222 2.71973C19.4185 3.01627 19.8298 3.18712 20.2488 3.18712Z" fill="#111111"/>
<path d="M30.0004 46.1988C24.2556 46.1988 18.8553 43.9617 14.7931 39.9C11.109 36.2159 8.92624 31.4303 8.55222 26.286H12.2081C12.2086 26.286 12.209 26.286 12.2095 26.286C13.0895 26.286 13.8028 25.5727 13.8028 24.6927C13.8028 24.3773 13.711 24.0828 13.5526 23.8356L8.28024 14.7035C7.99598 14.2106 7.46971 13.907 6.9005 13.907C6.33129 13.907 5.80525 14.2106 5.52076 14.7035L0.213368 23.8963C-0.0711227 24.3893 -0.0711227 24.9967 0.213368 25.4898C0.497859 25.9829 1.0239 26.2862 1.59311 26.2862H5.3592C5.73913 32.2826 8.25342 37.867 12.5396 42.1532C17.2035 46.8175 23.4044 49.3857 30.0002 49.3857C30.8802 49.3857 31.5933 48.6724 31.5933 47.7921C31.5935 46.9125 30.8804 46.1988 30.0004 46.1988ZM6.90072 18.6868L9.44842 23.0993H4.35303L6.90072 18.6868Z" fill="#111111"/>
<path d="M34.9717 46.1983C34.5527 46.1983 34.1417 46.3692 33.8451 46.665C33.5488 46.9616 33.3784 47.3726 33.3784 47.7916C33.3784 48.2115 33.5488 48.6219 33.8451 48.9184C34.1414 49.2154 34.5527 49.3852 34.9717 49.3852C35.3916 49.3852 35.8018 49.2154 36.099 48.9184C36.3953 48.6219 36.5648 48.2111 36.5648 47.7916C36.5648 47.3726 36.3953 46.9616 36.099 46.665C35.8018 46.3692 35.3916 46.1983 34.9717 46.1983Z" fill="#111111"/>
<path d="M39.7517 46.1983C39.3318 46.1983 38.9214 46.3692 38.6251 46.665C38.3279 46.9616 38.1584 47.3726 38.1584 47.7916C38.1584 48.2111 38.3281 48.6219 38.6251 48.9184C38.9214 49.2154 39.3318 49.3852 39.7517 49.3852C40.1707 49.3852 40.582 49.2154 40.8781 48.9184C41.1744 48.6219 41.3453 48.2111 41.3453 47.7916C41.3453 47.3726 41.1746 46.9616 40.8781 46.665C40.582 46.3692 40.1705 46.1983 39.7517 46.1983Z" fill="#111111"/>
</svg>
